<?xml version="1.0" encoding="UTF-8" standalone="no"?>
<!-- Created with Inkscape (http://www.inkscape.org/) -->

<svg
   xmlns:dc="http://purl.org/dc/elements/1.1/"
   xmlns:cc="http://creativecommons.org/ns#"
   xmlns:rdf="http://www.w3.org/1999/02/22-rdf-syntax-ns#"
   xmlns:svg="http://www.w3.org/2000/svg"
   xmlns="http://www.w3.org/2000/svg"
   xmlns:sodipodi="http://sodipodi.sourceforge.net/DTD/sodipodi-0.dtd"
   xmlns:inkscape="http://www.inkscape.org/namespaces/inkscape"
   width="600"
   height="600"
   viewBox="0 0 158.75 158.75"
   version="1.1"
   id="svg8"
   inkscape:version="0.92.5 (2060ec1f9f, 2020-04-08)"
   sodipodi:docname="icon.svg"
   inkscape:export-filename="/home/mdh/robot_mindset_linux_ws/robot_mindset_linux/script/gui/image/icon.png"
   inkscape:export-xdpi="120"
   inkscape:export-ydpi="120">
  <defs
     id="defs2" />
  <sodipodi:namedview
     id="base"
     pagecolor="#ffffff"
     bordercolor="#666666"
     borderopacity="1.0"
     inkscape:pageopacity="0.0"
     inkscape:pageshadow="2"
     inkscape:zoom="0.7"
     inkscape:cx="87.077996"
     inkscape:cy="-22.621004"
     inkscape:document-units="mm"
     inkscape:current-layer="layer1"
     showgrid="false"
     inkscape:window-width="1619"
     inkscape:window-height="1376"
     inkscape:window-x="72"
     inkscape:window-y="27"
     inkscape:window-maximized="0"
     units="px" />
  <metadata
     id="metadata5">
    <rdf:RDF>
      <cc:Work
         rdf:about="">
        <dc:format>image/svg+xml</dc:format>
        <dc:type
           rdf:resource="http://purl.org/dc/dcmitype/StillImage" />
        <dc:title></dc:title>
      </cc:Work>
    </rdf:RDF>
  </metadata>
  <g
     inkscape:label="Layer 1"
     inkscape:groupmode="layer"
     id="layer1"
     transform="translate(0,-138.24998)">
    <g
       id="g1160"
       transform="matrix(0.83471178,0,0,0.83471178,-73.666859,-277.91726)">
      <path
         id="path1756-8"
         transform="scale(0.26458333)"
         d="m 693.33789,1914.334 h 0.002 c -12.15983,0 -23.39045,2.0692 -24.95703,4.6075 -1.56835,2.5369 -4.56734,16.7714 -6.66797,31.6347 -2.10149,14.8638 -4.78762,27.9943 -5.96679,29.1739 -1.18182,1.1818 -9.0124,3.6875 -17.40821,5.582 -14.2831,3.2211 -15.59031,2.5497 -20.29492,-10.461 -2.76351,-7.6475 -10.6789,-20.677 -17.58984,-28.955 -12.12299,-14.5213 -13.13462,-14.8603 -28.67774,-9.7305 -28.612,9.443 -29.91358,15.6952 -14.45312,69.5039 1.89271,6.592 -1.0837,11.7075 -11.15625,19.1543 l -13.74805,10.1563 -18.66797,-15.9727 c -26.62556,-22.7909 -36.81903,-24.2776 -53.32226,-7.7734 -16.5179,16.5169 -15.02152,26.6991 7.86133,53.4336 l 16.07031,18.7734 -9.79102,13.748 c -7.43078,10.4343 -12.07505,13.1013 -19.24414,11.0508 -54.43514,-15.5728 -60.50782,-14.3327 -69.94726,14.2695 -5.00096,15.1527 -4.59355,16.6038 7.23437,26.0352 6.88789,5.4923 20.08793,13.3965 29.33008,17.5645 15.37296,6.9318 16.57705,8.7571 14.20898,21.4687 -3.49659,18.7616 -6.1279,20.9164 -28.69531,23.5039 -10.70298,1.2263 -24.9694,4.318 -31.70312,6.8692 -11.00289,4.1674 -12.24414,6.7937 -12.24414,25.9218 0,19.8715 0.92915,21.611 14.01757,26.1739 7.71165,2.6879 22.62158,4.8867 33.13086,4.8867 21.37403,0 21.77976,0.3561 25.79883,22.6699 2.74129,15.2299 2.06075,16.3503 -14.22656,23.6953 -9.40434,4.243 -22.61979,12.1191 -29.37305,17.5039 l -12.27734,9.791 7.39062,18.4766 c 4.0653,10.1636 10.17052,19.5415 13.56446,20.8437 5.59321,2.146 51.75983,-7.7647 60.06054,-12.8945 1.89268,-1.1685 7.6682,5.0353 12.83399,13.791 l 9.39062,15.92 -15.79883,18.4609 c -22.17641,25.9076 -23.87197,36.3425 -8.51367,52.373 6.88521,7.1865 15.65137,13.0617 19.47852,13.0528 3.82537,0 17.50996,-8.0219 30.4082,-17.8008 l 23.45117,-17.7813 14.5918,9.5645 14.5918,9.5742 -7.84375,22.6953 c -13.35054,38.6215 -11.44614,43.8308 20.44336,55.9551 9.60695,3.6521 13.05053,2.515 22.18164,-7.3301 5.94463,-6.4107 14.30411,-19.4088 18.57422,-28.8789 7.40367,-16.4179 8.50152,-17.084 23.74609,-14.3379 8.79386,1.5861 17.21579,3.5676 18.70508,4.3985 1.48838,0.8308 3.81183,13.6687 5.15625,28.5215 1.34623,14.8531 4.87926,29.9302 7.85156,33.5117 3.06561,3.692 12.97942,6.5136 22.89648,6.5136 15.74971,0 18.12837,-1.5423 23.9375,-15.4433 3.54989,-8.4918 6.45313,-23.392 6.45313,-33.1211 0,-19.8213 0.51813,-20.3909 22.26758,-24.3047 14.89179,-2.6791 16.06647,-1.9136 26.08789,16.9746 16.5877,31.2697 23.88978,36.0716 45.14648,29.7031 16.73961,-5.0151 17.79883,-6.3426 17.79883,-22.3984 0,-9.3879 -2.88319,-25.2507 -6.4082,-35.2441 l -6.41602,-18.1641 15.58985,-9.6348 15.58203,-9.6347 17.20898,13.8339 c 9.46564,7.6072 22.40784,16.1956 28.75586,19.0879 10.28538,4.6864 12.98981,3.8777 24.81641,-7.4531 7.30019,-6.9936 13.26953,-16.1712 13.26953,-20.3906 0,-4.2208 -8.12886,-17.9467 -18.06055,-30.5117 l -18.05078,-22.8438 9.34766,-15.1308 9.35547,-15.1387 18.16406,6.418 c 9.9939,3.5276 25.6325,6.4082 34.74804,6.4082 15.35562,0 17.1178,-1.3914 24.05274,-18.9219 l 7.48623,-18.9199 -12.03506,-9.6953 c -6.62173,-5.3307 -19.73388,-13.1597 -29.13867,-17.4004 -16.28822,-7.3451 -16.96768,-8.4654 -14.22461,-23.6954 1.58612,-8.7934 3.56758,-17.2157 4.39844,-18.705 0.83527,-1.4884 13.66835,-3.8119 28.52148,-5.1563 33.70222,-3.0567 40.02532,-8.1196 40.02532,-32.0332 0,-15.7981 -1.7955,-19.5916 -11.3398,-23.9394 -6.2366,-2.8435 -16.75439,-5.1913 -23.37302,-5.2246 -23.77406,-0.1335 -31.76766,-4.8176 -36.33008,-21.3399 -2.42139,-8.7694 -3.95468,-16.2496 -3.4082,-16.625 0.54648,-0.3553 11.64978,-6.3956 24.67773,-13.375 13.02754,-6.9794 25.5215,-16.1197 27.76557,-20.3125 5.0218,-9.383 -6.24464,-38.7532 -16.35541,-42.6328 -3.80757,-1.4617 -18.73922,0.6257 -33.18359,4.6426 -14.44396,4.0164 -26.91967,7.3047 -27.72071,7.3047 -0.79974,0 -5.85799,-5.9544 -11.23437,-13.2266 l -9.77344,-13.2168 17.82422,-23.5137 c 9.80243,-12.9293 17.83487,-26.6318 17.84375,-30.459 0,-3.8253 -5.86435,-12.5933 -13.05078,-19.4785 -16.05895,-15.3854 -26.46073,-13.6641 -52.58203,8.6953 l -18.66992,15.9747 -13.4961,-9.9747 c -15.79816,-11.6804 -15.54497,-9.9205 -6.12109,-43.8164 8.51709,-30.6339 5.96502,-36.5436 -19.33789,-44.8945 -18.58651,-6.1334 -25.28619,-1.1501 -42.46875,31.5742 -9.79442,18.6545 -11.60444,19.9633 -24.09571,17.4082 -20.97947,-4.2919 -23.86132,-7.7471 -23.86132,-28.6426 0,-10.7149 -1.94956,-24.6233 -4.33985,-30.9042 -3.85644,-10.1428 -6.81656,-11.418 -26.45117,-11.418 z m -0.37305,110.6289 a 218.82674,218.82674 0 0 1 218.82618,218.8262 218.82674,218.82674 0 0 1 -218.82618,218.8261 218.82674,218.82674 0 0 1 -218.82617,-218.8261 218.82674,218.82674 0 0 1 218.82617,-218.8262 z"
         style="fill:#000000;stroke-width:4.45210171"
         inkscape:connector-curvature="0" />
      <g
         transform="translate(2.4853278)"
         id="g1136">
        <circle
           id="circle30-1"
           r="6.9135623"
           cy="625.06879"
           cx="163.44196"
           class="cls-3"
           style="stroke-width:0.26458332" />
        <circle
           id="circle32-3"
           r="6.9135623"
           cy="609.90814"
           cx="192.2392"
           class="cls-3"
           style="stroke-width:0.26458332" />
        <path
           id="path34-1"
           d="m 179.03648,642.86466 c -4.97945,-1.06627 -9.144,-4.24921 -11.48291,-8.75771 -1.84415,0.83873 -3.91584,1.09538 -5.91079,0.72761 2.83104,6.95325 8.83708,12.00414 16.20572,13.58371 1.61661,0.3466 3.26761,0.51593 4.91067,0.50535 -1.27,-1.66952 -1.97644,-3.683 -2.02406,-5.78115 -0.56886,-0.0635 -1.13771,-0.1561 -1.69598,-0.27516 z"
           class="cls-3"
           inkscape:connector-curvature="0"
           style="stroke-width:0.26458332" />
        <circle
           id="circle36-1"
           r="6.9135623"
           cy="642.90436"
           cx="190.6808"
           class="cls-3"
           style="stroke-width:0.26458332" />
        <path
           id="path38-0"
           d="m 200.30105,640.36435 c 2.15106,-2.70933 3.66448,-5.91344 4.39473,-9.32127 1.27264,-5.93725 0.0847,-12.16819 -3.25967,-17.22173 -0.7964,1.87589 -2.14842,3.46339 -3.88938,4.55348 1.86532,3.51631 2.43417,7.57502 1.59809,11.48027 -0.41011,1.91029 -1.13242,3.7121 -2.15106,5.35781 1.62718,1.3335 2.77547,3.13002 3.30993,5.15144 z"
           class="cls-3"
           inkscape:connector-curvature="0"
           style="stroke-width:0.26458332" />
        <path
           id="path40-3"
           d="m 162.90748,615.15485 c 0.17463,-0.0106 0.3519,-0.0132 0.52653,-0.0132 0.6985,0 1.397,0.0741 2.08756,0.22225 1.12712,0.24077 2.1881,0.66939 3.15648,1.27 3.11414,-4.47675 8.13593,-7.16492 13.57841,-7.26281 0.0291,-0.52123 0.0979,-1.04511 0.20902,-1.55575 0.3175,-1.48167 0.96573,-2.86544 1.88913,-4.05078 -8.69421,-0.68791 -17.145,3.79942 -21.44713,11.39032 z"
           class="cls-3"
           inkscape:connector-curvature="0"
           style="stroke-width:0.26458332" />
      </g>
      <path
         inkscape:connector-curvature="0"
         id="path1149"
         d="m 177.65132,594.99422 c -1.24656,-0.18278 -2.18899,-0.67906 -3.18898,-1.67927 -1.01361,-1.01384 -1.26397,-1.50631 -1.39168,-2.73757 -0.18396,-1.77348 0.0625,-2.91894 0.95836,-4.45248 1.0399,-1.7803 3.07266,-3.80621 5.17713,-5.1597 2.22509,-1.43105 4.18213,-1.98693 6.63892,-1.88576 1.03926,0.0428 1.18819,0.0734 1.78694,0.36721 0.92198,0.45241 1.76088,1.31365 2.22368,2.28293 l 0.36122,0.7565 -0.006,1.3039 c -0.007,1.65892 -0.11605,2.13268 -0.81037,3.53895 -0.75554,1.53026 -1.57304,2.66298 -2.85394,3.95438 -1.61628,1.62952 -3.17427,2.63284 -5.07075,3.26549 -1.41765,0.47292 -2.65456,0.61697 -3.82458,0.44542 z m 2.27305,-2.56983 c 0.78724,-0.19234 2.19685,-0.84566 3.01217,-1.39605 0.71787,-0.4846 1.91987,-1.60975 1.91987,-1.79711 0,-0.25286 -0.3344,-0.12039 -1.25056,0.49538 -1.64757,1.10738 -3.32933,1.75503 -5.48244,2.11135 -1.38336,0.22892 -1.50781,0.33377 -0.6978,0.58786 0.5897,0.18498 1.73847,0.18432 2.49876,-0.001 z m 1.50437,-14.59857 c -0.19079,-0.74389 -0.35009,-2.16987 -0.40192,-3.59781 -0.0645,-1.77852 0.04,-3.39134 0.41319,-6.37466 0.21321,-1.70428 0.24119,-2.23555 0.20091,-3.81513 -0.0557,-2.18887 -0.2637,-3.15264 -1.01747,-4.71698 -1.58517,-3.2898 -4.78135,-6.14085 -9.49554,-8.4702 -1.24822,-0.61676 -1.53204,-0.70653 -1.53204,-0.4846 0,0.0441 0.7225,0.57403 1.60553,1.17749 0.88304,0.60344 2.04569,1.4508 2.58367,1.883 1.22503,0.98418 3.20094,3.00269 4.03592,4.12297 0.76356,1.02444 1.62662,2.44975 1.62662,2.6863 0,0.28455 -0.6019,0.37214 -2.55951,0.37242 -2.21212,2.8e-4 -3.19096,-0.10973 -4.73161,-0.53198 -3.86562,-1.05945 -7.19993,-3.08668 -10.19088,-6.19596 -2.61541,-2.71888 -3.99973,-5.51691 -4.30423,-8.69979 l -0.0669,-0.69924 0.37675,-0.37675 c 0.20722,-0.20721 0.54963,-0.42938 0.76092,-0.49369 0.57592,-0.1753 4.18705,-0.24141 5.483,-0.10041 3.28916,0.35795 5.81988,1.09151 8.35807,2.42267 4.18311,2.19386 7.36963,5.49952 9.44518,9.79834 0.66338,1.37398 1.30026,3.13428 1.52255,4.20829 0.0782,0.37803 0.16926,0.71432 0.20226,0.74732 0.16795,0.16796 0.41036,-0.25246 0.77197,-1.33882 0.66107,-1.98605 1.43985,-3.42179 2.93108,-5.40363 3.19815,-4.25035 7.62567,-6.92773 13.10531,-7.92495 3.13786,-0.57106 7.04168,-0.43391 8.04811,0.28273 0.29932,0.21314 0.49972,0.77227 0.49972,1.39427 0,1.19365 -0.73591,3.68936 -1.59341,5.40372 -2.9828,5.96347 -8.73414,9.95868 -15.69543,10.90293 -1.24541,0.16894 -4.80274,0.17383 -5.09479,0.007 -0.20818,-0.11892 -0.2112,-0.13849 -0.0724,-0.47079 0.2035,-0.48706 0.91312,-1.45836 1.90393,-2.60602 1.25919,-1.45853 2.79159,-2.7957 4.74417,-4.13973 1.19675,-0.82378 1.38382,-1.13061 0.53324,-0.87462 -0.88237,0.26554 -2.41474,1.19809 -3.89762,2.37191 -1.10459,0.87439 -2.81111,2.62639 -3.41091,3.50182 -0.99381,1.4505 -1.85915,3.57504 -2.35061,5.77107 -0.21356,0.95424 -0.22625,1.19372 -0.21742,4.10411 0.007,2.4886 0.0412,3.25069 0.17297,3.91173 0.09,0.45153 0.18919,1.06635 0.22045,1.36625 0.0709,0.6801 0.038,0.70194 -1.4467,0.95757 -1.38593,0.23863 -1.38493,0.23869 -1.4662,-0.0782 z"
         style="fill:#000000;stroke-width:0.09658566" />
    </g>
  </g>
</svg>
